<?xml version="1.0" encoding="UTF-8" standalone="no"?>
<!-- Created with Inkscape (http://www.inkscape.org/) -->

<svg
   xmlns:dc="http://purl.org/dc/elements/1.1/"
   xmlns:cc="http://creativecommons.org/ns#"
   xmlns:rdf="http://www.w3.org/1999/02/22-rdf-syntax-ns#"
   xmlns:svg="http://www.w3.org/2000/svg"
   xmlns="http://www.w3.org/2000/svg"
   xmlns:sodipodi="http://sodipodi.sourceforge.net/DTD/sodipodi-0.dtd"
   xmlns:inkscape="http://www.inkscape.org/namespaces/inkscape"
   width="198.83046mm"
   height="181.39163mm"
   viewBox="0 0 704.51738 642.72625"
   id="svg2"
   version="1.1"
   inkscape:version="0.91 r13725"
   inkscape:export-filename="/media/ai/Data/20160623bkup/Personal/websites/CreativeCommonsChristian/52StoriesWithDeborah/BitsAndPieces/JumpingLamb.png"
   inkscape:export-xdpi="300"
   inkscape:export-ydpi="300"
   sodipodi:docname="JumpingLamb.svg">
  <defs
     id="defs4" />
  <sodipodi:namedview
     id="base"
     pagecolor="#ffffff"
     bordercolor="#666666"
     borderopacity="1.0"
     inkscape:pageopacity="0.0"
     inkscape:pageshadow="2"
     inkscape:zoom="0.35"
     inkscape:cx="-129.67652"
     inkscape:cy="344.19052"
     inkscape:document-units="px"
     inkscape:current-layer="layer1"
     showgrid="false"
     inkscape:window-width="1329"
     inkscape:window-height="744"
     inkscape:window-x="37"
     inkscape:window-y="924"
     inkscape:window-maximized="1"
     fit-margin-top="0"
     fit-margin-left="0"
     fit-margin-right="0"
     fit-margin-bottom="0" />
  <metadata
     id="metadata7">
    <rdf:RDF>
      <cc:Work
         rdf:about="">
        <dc:format>image/svg+xml</dc:format>
        <dc:type
           rdf:resource="http://purl.org/dc/dcmitype/StillImage" />
        <dc:title></dc:title>
      </cc:Work>
    </rdf:RDF>
  </metadata>
  <g
     inkscape:label="Layer 1"
     inkscape:groupmode="layer"
     id="layer1"
     transform="translate(-20.390804,-233.82648)">
    <path
       style="fill:#000000"
       d="m 620.78366,873.78994 c -12.33774,-7.05182 -33.31604,-26.88732 -51.30908,-48.51386 -31.30076,-37.6216 -50.94411,-71.3643 -67.91975,-116.67023 l -1.13912,-3.04013 -4.02303,3.16837 c -2.21268,1.74264 -6.56129,4.4484 -9.66361,6.01286 -3.10231,1.56446 -5.64056,3.10496 -5.64056,3.42335 0,0.31837 3.39828,8.08349 7.55178,17.25582 21.94893,48.47095 34.76884,70.56726 51.96599,89.56854 11.06237,12.22294 13.28833,16.0046 11.86354,20.155 -1.64361,4.78798 -8.90864,7.77921 -18.8937,7.77921 -4.56363,0 -9.54939,0.47605 -11.07941,1.05776 -1.53004,0.58172 -6.36121,4.17921 -10.73596,7.9946 -8.50257,7.41538 -12.49149,8.96604 -19.62256,7.62824 -2.19554,-0.41188 -5.21726,-1.38409 -6.71498,-2.16056 -7.53768,-3.90759 -19.80093,-20.343 -28.43649,-38.11117 -11.66205,-23.99537 -23.08889,-70.96832 -23.15188,-95.17164 l -0.0179,-7.56296 -11.54973,0.0422 c -14.59115,0.0533 -21.05645,-2.26847 -30.39666,-10.91584 l -6.41705,-5.94105 -4.79239,3.92699 c -11.17539,9.15739 -25.84365,12.4596 -38.7189,8.71667 -5.12472,-1.4898 -7.43943,-3.00341 -12.4964,-8.17145 l -6.2066,-6.34298 -2.63605,3.47577 c -4.89089,6.44888 -18.07232,28.94487 -26.52691,45.27192 -13.9507,26.9409 -20.81733,44.45824 -32.15678,82.03464 -4.08313,13.53059 -5.28438,14.58432 -16.49432,14.46808 -10.40913,-0.10818 -15.57743,-2.34134 -22.20989,-9.59834 l -5.39604,-5.9041 -6.41639,1.13022 c -7.67519,1.35189 -17.50922,0.0453 -21.46769,-2.85147 -7.23204,-5.2932 -7.66424,-12.15795 -1.90684,-30.28886 11.67763,-36.77474 41.12432,-83.66036 77.59912,-123.55474 l 9.33125,-10.20613 -7.36821,-1.23367 c -4.05252,-0.67854 -9.28414,-2.032 -11.62583,-3.00769 -4.89877,-2.04113 -12.05463,-8.54247 -13.51585,-12.27955 -0.9431,-2.41201 -1.30717,-2.50273 -6.61382,-1.64812 -8.9182,1.43618 -15.35955,0.80974 -21.74828,-2.11512 -10.36316,-4.74443 -16.60094,-12.8083 -25.44941,-32.89965 l -1.65614,-3.76038 -12.06727,11.81834 c -21.37548,20.93447 -38.42781,44.06225 -52.27819,70.90396 -8.1509,15.79618 -16.21394,34.61928 -19.10199,44.59346 -0.94106,3.25004 -2.70444,7.53803 -3.918641,9.52884 -2.131091,3.4943 -2.402356,3.60356 -7.82922,3.15349 -7.692635,-0.63789 -11.816475,-3.92031 -15.896851,-12.65313 -1.802155,-3.85701 -3.606094,-7.67609 -4.008781,-8.48683 -0.402648,-0.81074 -3.262976,-2.41817 -6.356257,-3.57207 -8.34991,-3.11478 -9.432516,-5.80479 -7.178927,-17.83785 7.927347,-42.32787 50.192027,-100.04674 96.925037,-132.36603 2.25717,-1.56103 2.28127,-1.796 0.76731,-7.48632 -0.85964,-3.23109 -1.56301,-8.91196 -1.56301,-12.62413 0,-7.61459 0.17264,-7.51225 -8.59515,-5.09438 -8.1669,2.25218 -36.86405,2.18349 -47.990918,-0.11499 -29.016573,-5.99355 -58.063724,-28.79578 -72.001593,-56.52186 -2.940479,-5.84937 -3.515101,-9.64574 -5.257046,-34.73031 -0.935087,-13.46577 0.937692,-30.55886 4.532037,-41.3642 1.474259,-4.43187 5.276822,-13.03885 8.450126,-19.12658 20.269481,-38.88517 58.883343,-72.34174 101.324724,-87.79172 6.09532,-2.21888 10.68836,-4.39292 10.20674,-4.83116 -0.48161,-0.43824 -5.46869,-2.79143 -11.08241,-5.22925 -12.35962,-5.36733 -26.56928,-13.2425 -35.87161,-19.88049 -15.162383,-10.81967 -16.435078,-25.43184 -3.229375,-37.07761 11.253505,-9.92415 25.163145,-14.35359 45.010155,-14.33312 21.74077,0.0215 36.21623,5.78666 49.25843,19.61498 6.85799,7.27139 11.49812,15.38167 13.61884,23.80381 l 1.23341,4.89825 5.90027,0.60896 c 3.24518,0.33485 7.0567,1.36667 8.47011,2.29275 2.54043,1.66453 2.60232,1.61504 5.41585,-4.33231 3.62793,-7.66878 12.45728,-16.51337 20.33001,-20.36515 7.99694,-3.91254 20.72077,-4.90443 27.87334,-2.17285 8.5164,3.25244 15.629,14.3129 15.629,24.30391 0,2.82194 0.17548,2.89815 7.80258,3.38764 15.09772,0.96889 23.75289,8.62285 26.70207,23.61319 0.67647,3.43842 1.46504,6.25169 1.75234,6.25169 0.28722,0 3.47824,-2.73655 7.0909,-6.08125 9.68198,-8.96378 17.79766,-12.40238 30.74319,-13.02576 11.52471,-0.55496 16.55348,0.88145 23.42775,6.69177 3.90209,3.29818 11.1607,15.0707 13.11118,21.2647 l 1.26425,4.01466 7.71076,-7.86969 c 9.05348,-9.24011 21.83208,-17.40021 34.98139,-22.33821 8.71638,-3.27327 10.10848,-3.48039 23.7631,-3.53536 11.33437,-0.0454 15.37068,0.33306 18.46842,1.73329 5.67853,2.56654 13.53615,10.18049 17.19267,16.65952 l 3.14561,5.5737 7.18793,-0.59314 c 10.89893,-0.89932 15.71956,0.82722 22.9558,8.22185 3.87441,3.95921 6.57539,7.82422 7.40655,10.59837 l 1.30825,4.36651 3.33739,-1.76379 c 2.34412,-1.23881 6.21517,-1.78284 13.00691,-1.82789 8.59677,-0.057 10.38475,0.28649 16.11592,3.09628 12.40471,6.08165 22.86014,20.19694 26.91383,36.33477 1.00037,3.98251 2.29463,7.24092 2.87615,7.24092 0.58151,0 2.52556,-1.23548 4.32011,-2.7455 11.89531,-10.00924 36.28635,-15.04475 51.29074,-10.58891 7.40506,2.19906 17.14176,11.52867 19.52817,18.71177 l 1.60446,4.82939 9.46065,1.35425 c 11.52625,1.64994 18.13274,4.98755 25.21845,12.74046 6.40751,7.01085 7.93448,12.13248 7.43323,24.93189 -0.34846,8.89639 -0.6644,10.09133 -3.87194,14.64006 -3.33052,4.72319 -3.42342,5.11857 -2.00149,8.52163 2.15022,5.14624 3.06142,11.65102 2.24305,16.01314 -1.23243,6.56949 -9.99871,13.59475 -19.0926,15.30078 -3.727,0.69918 -3.97903,0.99513 -3.97903,4.67264 0,9.41216 -7.0858,15.76092 -17.32789,15.52547 l -6.08115,-0.13967 -0.71784,6.70308 c -0.7355,6.86803 -4.23656,15.80828 -8.12795,20.75537 l -2.18877,2.7826 3.13882,3.30685 c 11.36962,11.97799 13.01003,34.64897 3.3864,46.79981 l -3.43589,4.33815 5.64054,6.16749 c 6.91863,7.56504 11.17597,16.29077 12.88131,26.40139 1.67394,9.92419 0.67297,23.23469 -2.19236,29.1537 -5.31408,10.97737 -14.96644,18.17553 -26.1323,19.48787 l -5.84327,0.68675 -0.54655,6.8089 c -0.94081,11.72069 -7.73516,20.33501 -20.89647,26.49394 -7.9781,3.73336 -17.5113,4.91721 -24.29732,3.01725 -4.1861,-1.17203 -5.13522,-1.07619 -8.80134,0.88875 -2.2601,1.21134 -6.20377,2.51652 -8.76373,2.90039 -2.55996,0.38388 -4.65445,0.94793 -4.65445,1.25346 0,2.90606 24.24132,32.0099 34.64678,41.59659 16.66426,15.35298 38.73277,29.0685 55.3589,34.40547 6.18898,1.98663 7.69293,4.17142 10.16013,14.75929 1.01343,4.34926 0.88866,5.72555 -0.8756,9.65781 -2.76617,6.16523 -13.66257,17.08675 -20.49924,20.54649 -5.86597,2.96846 -5.95308,3.13012 -7.40551,13.74697 -0.86392,6.31498 -5.80263,15.01458 -10.60188,18.67509 -3.93965,3.00496 -13.35265,6.98074 -16.47633,6.95911 -1.02778,-0.0125 -4.03357,-1.25037 -6.67959,-2.76279 z m 15.06931,-11.46376 c 4.93248,-3.32399 7.13753,-7.54685 8.54262,-16.36017 0.65768,-4.12512 1.77301,-8.68475 2.47853,-10.13251 0.70551,-1.44775 4.6671,-4.68292 8.8035,-7.18931 4.13643,-2.50637 9.6003,-6.84435 12.142,-9.63998 3.87416,-4.26128 4.56886,-5.69047 4.29757,-8.84103 -0.31514,-3.66124 -0.57505,-3.85882 -10.08228,-7.66931 -12.8395,-5.14598 -23.84459,-11.53086 -37.27647,-21.62684 -25.48639,-19.15668 -46.88733,-46.89171 -67.92043,-88.02291 -4.98589,-9.75012 -9.49628,-18.37025 -10.02309,-19.15581 -0.75318,-1.1232 -1.97739,-0.70967 -5.73032,1.93564 -5.73949,4.04556 -14.37987,5.34597 -21.77096,3.27661 -4.78475,-1.33966 -4.82866,-1.32698 -9.73764,2.80714 -4.70875,3.96549 -4.90618,4.35833 -4.37611,8.7065 1.92459,15.78694 31.39163,74.14681 51.63343,102.26071 22.35758,31.05258 54.76777,64.98319 67.24214,70.39653 5.10351,2.21465 7.62168,2.05539 11.77751,-0.74526 z m -130.32522,-8.05423 c 12.05016,-10.4782 13.00775,-11.01262 19.73238,-11.01262 3.40178,0 7.44465,-0.47893 8.98419,-1.06417 3.46515,-1.31742 3.09317,-2.09363 -5.92618,-12.36578 -13.95789,-15.89661 -30.92133,-44.68752 -41.14676,-69.83559 -4.44858,-10.94074 -7.807,-21.11085 -11.90438,-36.04966 -1.6055,-5.85352 -1.73443,-5.99173 -6.80153,-7.29038 -2.84077,-0.72804 -6.57074,-2.44461 -8.28881,-3.81457 l -3.1238,-2.49084 -8.32881,6.02084 -8.32885,6.02079 -0.0669,6.30849 c -0.0834,7.86615 2.42971,25.31245 5.97819,41.50207 8.14262,37.14985 27.20921,77.34104 41.14602,86.73306 2.26606,1.52701 5.23078,2.44173 7.91474,2.44173 3.57963,0 5.26492,-0.84654 10.16048,-5.10337 z m -257.89589,-15.9708 c 2.49961,-1.55846 2.7776,-2.38763 7.2675,-21.68204 4.47209,-19.21766 18.37751,-51.83072 33.30562,-78.1132 12.64921,-22.27032 24.50038,-38.71712 39.53787,-54.86981 5.24662,-5.63574 7.60803,-9.18432 9.14886,-13.74845 l 2.07691,-6.15203 -3.34191,-1.68196 c -4.74501,-2.38814 -10.16616,-7.75062 -12.59017,-12.45392 -1.14209,-2.21594 -2.71953,-4.02898 -3.50543,-4.02898 -1.99443,0 -26.09988,23.23068 -43.72486,42.13812 -16.46287,17.6608 -32.67012,38.44384 -46.96119,60.21982 -15.58022,23.74036 -32.72626,60.69856 -34.29163,73.91546 -0.5837,4.92874 -0.47261,5.22211 2.23417,5.90153 3.78617,0.9502 12.74319,-0.2589 19.82595,-2.67625 5.69082,-1.94233 5.75561,-1.93979 8.34594,0.32697 1.43582,1.25643 4.17321,4.68848 6.08305,7.62689 5.16479,7.9464 9.89523,9.4514 16.58932,5.27797 z M 98.800955,726.15036 c 10.802065,-31.36097 27.945035,-61.33736 49.484435,-86.52909 11.41572,-13.35147 17.12244,-18.67018 29.01804,-27.04526 l 8.32655,-5.86234 0,-5.81971 c 0,-5.31724 -0.20879,-5.82025 -2.41739,-5.82573 -4.4956,-0.0113 -10.3384,-2.19594 -15.92292,-5.95407 l -5.55927,-3.74111 -6.90854,6.06538 c -12.14446,10.66226 -36.05038,34.96861 -45.84367,46.61157 -17.111562,20.34348 -32.042176,44.95937 -40.373493,66.56323 -3.576907,9.27521 -4.139578,14.13662 -1.855519,16.03218 0.798238,0.66251 3.819973,1.51372 6.714974,1.89159 6.800195,0.88759 7.694271,1.69302 8.580534,7.7302 1.37734,9.38243 4.475903,14.49397 8.4421,13.92658 1.82393,-0.26109 3.270309,-3.39989 8.314169,-18.04342 z M 428.9601,714.82937 c 3.4872,-0.90831 11.11175,-3.8958 16.94342,-6.63888 9.75674,-4.58927 10.88271,-4.88624 14.10654,-3.72052 1.92692,0.69678 6.48297,1.26689 10.12459,1.26689 5.80952,0 7.84144,-0.63213 16.57685,-5.15702 8.9953,-4.65951 9.98727,-5.47612 10.28263,-8.46444 0.31337,-3.17003 0.12279,-3.33796 -4.58626,-4.04416 -5.58686,-0.83778 -10.94247,-4.75255 -9.96971,-7.28748 0.46267,-1.20572 2.63624,-1.76809 8.00661,-2.07154 6.61855,-0.37399 8.18795,-0.93887 15.36441,-5.53031 6.84798,-4.38127 8.45857,-4.99371 11.24382,-4.27555 6.29642,1.6236 14.1789,0.98443 17.40857,-1.41153 3.32203,-2.46449 7.8218,-9.5959 7.84974,-12.44067 0.0103,-0.98878 -1.23818,-3.29027 -2.77309,-5.11444 l -2.79076,-3.31666 3.83064,-1.60053 c 2.10688,-0.88032 4.63618,-1.60056 5.62072,-1.60056 3.87069,0 10.34187,-2.65797 12.18936,-5.00667 1.46849,-1.8669 1.81179,-3.66545 1.39887,-7.32884 -0.49153,-4.36104 -0.32233,-4.85481 1.66335,-4.85481 5.52375,0 9.70225,12.39691 6.06642,17.9981 -2.23796,3.44769 -4.67683,5.36405 -10.59443,8.32458 -4.6235,2.31314 -6.54127,6.30218 -5.42347,11.28114 0.84347,3.75705 16.05902,28.9198 20.10554,33.24955 1.83751,1.96614 5.91615,4.75376 9.06359,6.19473 4.99798,2.28815 6.19747,2.46323 9.47155,1.38271 3.19535,-1.05458 3.59106,-1.53201 2.68018,-3.23396 -0.58776,-1.0982 -1.06863,-2.27025 -1.06863,-2.60458 0,-0.33413 6.30448,-0.60782 14.00994,-0.60782 12.10798,0 14.624,-0.30763 18.5333,-2.267 11.72669,-5.87708 15.6334,-13.66727 12.50463,-24.93474 -1.54724,-5.57192 -0.0667,-7.17889 6.61433,-7.17889 13.17941,0 27.24907,-10.05501 29.97618,-21.42275 1.92717,-8.03343 0.95074,-20.00465 -2.16158,-26.50038 -3.09038,-6.45005 -16.02401,-19.76373 -19.19953,-19.76373 -1.67399,0 -2.25996,-0.67369 -2.25996,-2.5981 0,-4.06354 1.08597,-5.94789 4.42221,-7.67308 3.88437,-2.00872 8.47483,-10.84701 8.45778,-16.28437 -0.0144,-4.81774 -2.20724,-13.51665 -4.54466,-18.03436 -2.31217,-4.46891 -5.09826,-6.73837 -8.78965,-7.15974 -1.7272,-0.19733 -3.31802,-0.90049 -3.53516,-1.56296 -0.21702,-0.66247 1.67946,-3.64187 4.21471,-6.62088 2.53525,-2.97906 6.30172,-8.22121 8.36992,-11.64924 3.69392,-6.12261 3.76038,-6.44232 3.76038,-18.09015 0,-11.40617 -0.14753,-12.16676 -3.88225,-19.98653 -2.88965,-6.05068 -6.39207,-10.79982 -13.69853,-18.57461 -5.39897,-5.74504 -9.81626,-11.16732 -9.81626,-12.04951 0,-2.65206 2.76683,-2.88743 7.22242,-0.61437 12.61817,6.43731 24.41476,20.58766 28.5467,34.24264 2.35318,7.77654 2.39727,7.83313 5.59505,7.18196 4.36088,-0.88801 8.05797,-3.35744 8.05797,-5.3822 0,-0.91528 -1.24459,-3.78782 -2.7657,-6.38344 -1.52117,-2.59565 -2.60899,-5.82434 -2.41739,-7.17488 0.32768,-2.30989 0.96806,-2.49605 10.79319,-3.13724 16.90069,-1.10301 19.10097,-2.26149 19.10097,-10.05659 0,-3.41983 -0.72142,-5.53295 -2.68599,-7.86772 -1.47729,-1.75567 -2.68598,-3.61881 -2.68598,-4.14032 0,-0.52151 1.88968,-3.46313 4.19928,-6.5369 4.62304,-6.15271 6.0864,-11.74805 4.98809,-19.07227 -0.97368,-6.49295 -4.41963,-11.02576 -11.33616,-14.91144 -4.9117,-2.75945 -7.44257,-3.41267 -14.99347,-3.86991 l -9.08429,-0.55005 -3.80843,-6.7276 c -8.05202,-14.22381 -13.72296,-18.45316 -24.80202,-18.49707 -14.37418,-0.057 -29.88256,7.09684 -40.0723,18.48489 -6.57762,7.35112 -12.66961,11.57455 -16.6954,11.57455 -2.90567,0 -3.37704,-2.09754 -1.32793,-5.90916 2.62969,-4.89151 2.1614,-21.71166 -0.83753,-30.08305 -7.81556,-21.81705 -26.11182,-31.74872 -42.55425,-23.09948 -3.37006,1.77275 -6.54711,3.22318 -7.06015,3.22318 -0.51301,0 -2.59129,-3.58967 -4.61835,-7.97703 -5.50115,-11.90647 -9.6452,-17.41031 -14.25421,-18.93144 -3.67886,-1.21413 -10.55227,-0.94665 -17.77449,0.6917 -2.60229,0.5903 -3.13927,0.14218 -5.56422,-4.64322 -3.76739,-7.43458 -14.1968,-16.84675 -20.39768,-18.40817 -21.01017,-5.29039 -55.5916,9.37087 -68.70627,29.12899 -7.0318,10.59386 -9.25766,9.58263 -17.80111,-8.08707 -7.08133,-14.64576 -13.2479,-22.53731 -19.12716,-24.47762 -6.56906,-2.16798 -17.57745,-0.75099 -25.88637,3.33202 -8.58801,4.22018 -18.1132,13.31132 -21.64757,20.66115 -2.74071,5.69942 -2.68036,8.54469 0.43129,20.33059 1.7937,6.79398 1.79861,7.5103 0.0874,12.74264 -0.99736,3.04921 -1.64956,5.70779 -1.44936,5.90799 0.2002,0.20019 5.1831,1.40226 11.07311,2.67127 31.92789,6.87887 54.04692,17.64134 68.63162,33.39418 7.92393,8.5586 11.76418,15.68517 13.56242,25.16879 2.35447,12.41706 -2.96278,21.38048 -17.0859,28.80197 -11.22453,5.89832 -17.53617,7.13273 -36.47019,7.13273 -15.48585,0 -17.14351,-0.20307 -26.06739,-3.19282 -17.26914,-5.78569 -32.26948,-14.52836 -44.40539,-25.88092 -9.09833,-8.51107 -14.9653,-16.7247 -22.00334,-30.80425 -5.80113,-11.60518 -6.86236,-16.41599 -3.61494,-16.3876 2.62062,0.0215 3.39906,0.73149 8.83424,8.04152 6.61526,8.89714 23.53362,25.22102 32.70021,31.55125 8.49251,5.86476 24.25541,14.06128 32.07629,16.67933 10.46953,3.50468 19.23516,4.25715 34.99584,3.00422 17.20901,-1.3681 24.79574,-3.69684 30.19628,-9.26876 3.13291,-3.23236 3.50622,-4.19942 2.94832,-7.63741 -2.04407,-12.59603 -14.24529,-24.45297 -36.72911,-35.69271 -19.2607,-9.62851 -38.28887,-14.4932 -63.68273,-16.28099 -17.15526,-1.20776 -21.30768,-2.55895 -25.74569,-8.37748 -3.59768,-4.71681 -2.84939,-5.18778 9.51477,-5.98883 15.08787,-0.9775 22.43748,-5.95385 20.89969,-14.15096 -1.11482,-5.9425 -3.99825,-8.26617 -9.22106,-7.43101 l -4.28662,0.68548 0,-3.74654 c 0,-2.67197 1.08191,-5.09946 3.77225,-8.46386 8.6469,-10.81335 9.13127,-25.5756 1.04786,-31.93405 -2.35411,-1.85172 -4.406,-2.32918 -10.00957,-2.32918 -6.12774,0 -7.42956,0.36508 -9.96572,2.79489 l -2.91724,2.7949 -1.63297,-2.52629 c -0.89809,-1.38945 -2.664,-6.59397 -3.92416,-11.56551 -2.60304,-10.2692 -5.55443,-16.70855 -8.1072,-17.68815 -3.52309,-1.35195 -11.90591,-0.56395 -16.611,1.56145 -9.31454,4.20758 -15.20221,11.68204 -18.65483,23.68235 -2.58964,9.00084 -3.54933,9.34701 -11.22617,4.04958 -4.90016,-3.38138 -7.8214,-4.60577 -11.93125,-5.00064 -5.20312,-0.49998 -5.63166,-0.33378 -9.7493,3.78402 -4.59345,4.59343 -5.48844,8.18338 -2.42678,9.73398 1.0341,0.52376 4.94192,1.58227 8.68407,2.35228 10.20228,2.0993 12.84848,5.94062 6.35746,9.22858 -5.32675,2.69825 -7.16039,4.69959 -8.34856,9.11212 -2.08146,7.72992 0.82783,10.49262 16.67511,15.83467 8.31456,2.80282 8.58739,3.00233 8.35657,6.11131 -0.3717,5.00686 1.69608,11.13484 4.30975,12.77241 3.49812,2.19166 9.25072,2.84482 14.73074,1.6725 2.65914,-0.56888 6.48161,-1.34779 8.49442,-1.73095 l 3.65963,-0.69667 -0.7178,3.58912 c -1.38242,6.91201 -7.56713,11.00968 -16.80821,11.13621 -14.695,0.20126 -24.72008,-9.08953 -21.68169,-20.09355 l 1.02042,-3.69573 -5.1746,-0.61288 c -9.39454,-1.11264 -19.30555,-7.70151 -21.47568,-14.27713 -1.5463,-4.68533 -0.6175,-11.58551 2.28961,-17.00952 1.19561,-2.23073 2.02423,-4.17199 1.8414,-4.31388 -0.18301,-0.14182 -7.40885,0.13143 -16.05775,0.60721 -31.70395,1.74428 -54.38486,8.7566 -78.00474,24.11697 -36.987007,24.05323 -62.203981,54.0962 -73.362716,87.40286 l -3.385057,10.10369 0.361749,21.58863 0.361712,21.58864 3.426132,7.23253 c 3.878032,8.18639 17.748106,23.34811 31.491685,34.42425 l 8.057969,6.49404 0.295099,-7.42231 c 0.251041,-6.31143 -0.515683,-10.14423 -5.121932,-25.6093 -5.91393,-19.85543 -9.972026,-38.04404 -9.463841,-42.41757 0.183372,-1.57753 1.003664,-2.78468 1.892368,-2.78468 2.922929,0 6.168608,6.79596 13.053758,27.33256 3.775917,11.26261 7.142645,20.47759 7.481573,20.47774 0.338802,1.4e-4 4.394495,-5.32267 9.012343,-11.82848 10.562488,-14.88083 16.912098,-21.79875 19.546788,-21.29633 4.77265,0.91012 2.21615,7.43972 -14.644829,37.40527 -7.727969,13.73428 -8.703804,17.24821 -6.442026,23.19714 0.859229,2.25999 0.739791,3.30967 -0.537195,4.72075 -2.505524,2.76857 -2.010372,3.95142 2.386841,5.70178 12.133069,4.82968 40.665759,6.20169 53.988319,2.59603 10.08385,-2.72911 25.12948,-10.35116 35.54704,-18.00786 12.46373,-9.16061 34.14763,-31.27982 45.30894,-46.21853 9.48558,-12.69584 32.7883,-49.0705 38.41104,-59.95812 4.3875,-8.49589 3.95159,-5.29205 -1.50015,11.02482 -11.54913,34.56629 -29.7757,64.18265 -55.39929,90.01844 -12.40327,12.50603 -20.95539,19.08586 -38.27215,29.44604 -2.76661,1.65521 -3.34563,12.42528 -1.08589,20.19847 2.40241,8.264 6.92124,13.16381 14.05221,15.23682 3.12192,0.90758 7.47934,1.52869 9.68317,1.38028 5.64422,-0.38012 7.91144,2.59187 7.26222,9.51974 -1.03038,10.99553 6.13203,30.07339 14.8352,39.51523 6.3168,6.85292 13.25112,9.46434 25.48476,9.59743 l 9.9871,0.10856 3.01883,4.83478 c 4.4923,7.19454 10.27841,10.00344 21.73455,10.55116 5.71048,0.2729 10.87198,-0.0727 13.43104,-0.90006 4.83093,-1.56163 28.59648,-18.02052 27.82435,-19.26987 -0.28651,-0.4636 -2.34885,-1.13521 -4.5829,-1.49247 -10.6596,-1.70454 -19.54783,-12.85707 -18.07487,-22.67951 0.84286,-5.62053 3.80196,-9.83584 6.24625,-8.89789 0.92515,0.35491 2.48406,3.40416 3.46424,6.77582 3.49005,12.00538 5.87908,13.32457 24.19701,13.36099 12.21357,0.0251 15.24208,0.81711 12.33555,3.22931 -2.64798,2.19763 -4.81479,7.02528 -4.81479,10.72737 0,7.46334 5.27306,12.28806 16.52699,15.12185 2.74859,0.69208 5.31102,1.76573 5.69425,2.38586 0.38327,0.6201 -1.07539,2.61544 -3.24148,4.43403 -4.60415,3.86553 -5.23911,8.34652 -1.80194,12.71613 1.89889,2.41403 3.21209,2.80099 11.81834,3.48212 5.32513,0.42149 9.68205,1.18997 9.68205,1.70779 0,0.51782 -2.05478,3.07037 -4.56618,5.67233 -6.8787,7.12686 -12.80319,7.4182 -26.73255,1.31471 -1.33551,-0.58519 -2.80645,0.84437 -6.17776,6.00404 -2.4337,3.72468 -4.42489,7.45533 -4.42489,8.29042 0,1.9463 7.62734,9.22124 12.12249,11.56243 5.43222,2.82923 15.69878,2.15781 28.1904,-1.84364 7.56484,-2.42322 11.45505,-4.29504 13.5194,-6.50492 1.59407,-1.70645 3.36901,-3.10267 3.94424,-3.10267 0.57526,0 4.83743,2.76893 9.4715,6.15317 8.62578,6.29932 16.71042,9.86545 22.50678,9.92766 1.79636,0.0179 6.11922,-0.70807 9.60642,-1.61637 z M 191.18922,408.86608 c -3.40842,-3.62808 -3.08229,-8.75073 0.80447,-12.63753 3.87026,-3.87025 6.86396,-3.97769 10.466,-0.3756 2.28184,2.28179 2.6562,3.43509 2.14253,6.60042 -1.29172,7.95981 -8.65317,11.47931 -13.413,6.41271 z m -54.73614,-32.11773 c -4.91328,-2.41536 -4.39775,-11.57439 0.95263,-16.92476 5.76004,-5.76001 12.76926,-3.65778 12.76926,3.82982 0,4.21639 -2.15027,10.01902 -4.40578,11.88932 -2.37299,1.96772 -6.64205,2.52022 -9.31611,1.20562 z m 43.11779,-70.29514 c 4.35307,-0.59665 4.98471,-1.00943 4.98471,-3.25767 0,-4.70288 3.20796,-10.34728 8.80556,-15.49344 l 5.53313,-5.08684 -1.93871,-3.04953 c -3.53966,-5.56783 -23.6312,-24.49125 -29.15154,-27.45665 -15.37658,-8.25995 -39.08179,-8.33419 -55.74589,-0.17441 -16.324425,7.99328 -17.458062,16.62998 -3.49096,26.59667 13.35698,9.53134 46.40178,25.18224 58.0004,27.47055 6.12211,1.20785 7.20951,1.24558 13.0033,0.45146 z"
       id="path4179"
       inkscape:connector-curvature="0" />
  </g>
</svg>
