<?xml version="1.0" encoding="UTF-8"?>
<!DOCTYPE svg PUBLIC "-//W3C//DTD SVG 1.1//EN" "http://www.w3.org/Graphics/SVG/1.1/DTD/svg11.dtd">
<svg version="1.1" xmlns="http://www.w3.org/2000/svg" xmlns:xlink="http://www.w3.org/1999/xlink" x="0" y="0" width="1201" height="988" viewBox="0, 0, 1201, 988">
  <g id="Layer_1">
    <path d="M671.168,299.023 C681.148,314.867 728.766,391.042 736.254,423.504 C731.267,473.435 701.132,443.823 686.148,398.891" fill="#E7E7E6"/>
    <g>
      <path d="M671.168,299.023 C681.148,314.867 740.33,376.898 738.961,426.211 C733.974,476.135 701.132,443.823 686.148,398.891" fill="#EAE6D0"/>
      <path d="M671.168,299.023 C681.148,314.867 740.33,376.898 738.961,426.211 C733.974,476.135 701.132,443.823 686.148,398.891" fill-opacity="0" stroke="#1A1919" stroke-width="4.265" stroke-linecap="round" stroke-linejoin="round"/>
    </g>
    <g>
      <path d="M223.11,742.828 C229.4,729.233 227.972,601.32 226.788,583.637 C225.225,559.602 218.75,496.838 283.001,565.577 C292.839,600.26 277.349,674.068 275.358,713.113 C274.096,737.834 283.709,761.197 268.044,785.842 C253.376,808.924 217.313,815.659 201.821,800.83 C197.23,793.662 189.339,765.875 223.11,742.828 z" fill="#FFFFFE"/>
      <path d="M223.11,742.828 C229.4,729.233 227.972,601.32 226.788,583.637 C225.225,559.602 218.75,496.838 283.001,565.577 C292.839,600.26 277.349,674.068 275.358,713.113 C274.096,737.834 283.709,761.197 268.044,785.842 C253.376,808.924 217.313,815.659 201.821,800.83 C197.23,793.662 189.339,765.875 223.11,742.828 z" fill-opacity="0" stroke="#1A1919" stroke-width="4.265" stroke-linecap="round" stroke-linejoin="round"/>
    </g>
    <g>
      <path d="M576.299,685.986 C578.8,648.537 573.021,563.828 571.312,546.187 C568.984,522.211 564.464,440.341 630.873,506.989 C647.911,560.416 629.08,654.736 628.727,673.512 C628.26,698.279 630.674,718.915 619.988,734.045 C609.604,749.231 575.574,765.639 566.546,751.947 C546.052,737.834 555.947,715.837 576.299,685.986 z" fill="#FFFFFE"/>
      <path d="M576.299,685.986 C578.8,648.537 573.021,563.828 571.312,546.187 C568.984,522.211 564.464,440.341 630.873,506.989 C647.911,560.416 629.08,654.736 628.727,673.512 C628.26,698.279 630.674,718.915 619.988,734.045 C609.604,749.231 575.574,765.639 566.546,751.947 C546.052,737.834 555.947,715.837 576.299,685.986 z" fill-opacity="0" stroke="#1A1919" stroke-width="4.265" stroke-linecap="round" stroke-linejoin="round"/>
    </g>
    <g>
      <path d="M94.011,562.34 C92.955,579.822 89.503,660.134 82.474,675.619 C55.406,695.383 29.016,706.752 44.542,725.933 C49.383,746.002 115.882,738.113 127.265,713.336 C134.686,697.123 134.491,681.764 136.387,663.74 C140.337,626.492 168.323,571.305 160.961,533.815 C156.465,510.857 126.651,471.24 99.821,487.111 C73.351,502.81 95.741,534.434 94.011,562.34 z" fill="#FFFFFE"/>
      <path d="M94.011,562.34 C92.955,579.822 89.503,660.134 82.474,675.619 C55.406,695.383 29.016,706.752 44.542,725.933 C49.383,746.002 115.882,738.113 127.265,713.336 C134.686,697.123 134.491,681.764 136.387,663.74 C140.337,626.492 168.323,571.305 160.961,533.815 C156.465,510.857 126.651,471.24 99.821,487.111 C73.351,502.81 95.741,534.434 94.011,562.34 z" fill-opacity="0" stroke="#1A1919" stroke-width="4.265" stroke-linecap="round" stroke-linejoin="round"/>
    </g>
    <g>
      <path d="M463.35,539.531 C462.44,566.689 464.197,634.74 459.337,656.545 C438.448,669.478 410.898,697.084 426.939,715.837 C432.341,735.761 489.974,714.664 500.692,689.576 C507.674,673.178 507.057,657.822 508.457,639.746 C511.398,602.406 537.88,546.489 529.509,509.216 C524.392,486.375 493.497,447.584 467.126,464.186 C441.088,480.588 464.32,511.602 463.35,539.531 z" fill="#FFFFFE"/>
      <path d="M463.35,539.531 C462.44,566.689 464.197,634.74 459.337,656.545 C438.448,669.478 410.898,697.084 426.939,715.837 C432.341,735.761 489.974,714.664 500.692,689.576 C507.674,673.178 507.057,657.822 508.457,639.746 C511.398,602.406 537.88,546.489 529.509,509.216 C524.392,486.375 493.497,447.584 467.126,464.186 C441.088,480.588 464.32,511.602 463.35,539.531 z" fill-opacity="0" stroke="#1A1919" stroke-width="4.265" stroke-linecap="round" stroke-linejoin="round"/>
    </g>
    <path d="M709.866,374.549 C712.634,368.538 730.931,339.927 702.842,317.458 C721.566,294.993 696.465,246.625 669.406,252.614 C661.946,219.681 623.451,196.437 602.534,219.178 C595.047,164.255 533.178,184.064 520.465,198.914 C499.552,173.679 464.114,184.939 438.396,202.967 C426.756,167.153 359.106,174.202 326.651,219.139 C296.69,189.186 204.181,146.849 226.788,196.67 C133.423,224.019 70.121,258.34 115.161,354.726 C96.318,367.628 9.373,441.492 41.423,464.425 C22.288,514.019 33.005,553.296 74.301,536.982 C54.322,586.919 94.565,607.232 126.988,585.616 C151.32,640.332 194.555,614.663 212.769,564.68 C219.814,608.167 343.151,606.145 360.696,570.759 C383.66,599.128 422.861,582.239 429.594,554.547 C440.399,601.832 473.645,619.914 480.927,592.376 C497.138,631.551 536.32,626.144 534.967,599.128 C570.092,627.498 596.393,549.244 589.007,514.019 C620.242,534.377 701.132,478.779 678.664,458.807 C711.747,432.548 708.949,442.862 688.973,415.398" fill="#EAE6D0"/>
    <path d="M125.452,579.746 C127.003,590.346 142.87,612.16 154.126,615.231 C174.703,620.85 200.151,600.082 208.712,582.152 C218.654,561.34 211.72,539.405 195.311,524.294 C182.579,512.565 143.428,477.563 125.657,480.92 C110.151,483.85 86.479,506.59 105.393,526.854 C79.724,532.257 90.528,587.647 125.452,579.746" fill="#D9D6C1"/>
    <path d="M534.967,599.128 C569.788,627.252 596.795,553.261 577.648,527.437 C559.303,502.687 515.788,501.043 488.652,507.932 C480.48,510.009 470.7,518.146 464.039,519.492 C455.898,521.135 451.374,512.55 442.481,509.852 C421.311,503.428 414.428,515.987 405.633,530.836 C398.418,506.619 371.517,516.982 351.977,526.418 C336.412,533.934 320.216,549.212 326.181,568.49 C331.82,586.725 351.031,586.127 360.74,571.455 C372.265,582.627 386.106,588.615 402.17,583.381 C410.822,580.559 432.289,566.334 429.594,554.555 C440.403,601.832 473.645,619.914 480.927,592.376 C497.138,631.551 536.32,626.144 534.967,599.128" fill="#D9D6C1"/>
    <path d="M709.866,374.549 C712.634,368.538 730.931,339.927 702.842,317.458 C721.566,294.993 696.465,246.625 669.406,252.614 C661.946,219.681 623.451,196.437 602.534,219.178 C595.047,164.255 533.178,184.064 520.465,198.914 C499.552,173.679 464.114,184.939 438.396,202.967 C426.756,167.153 359.106,174.202 326.651,219.139 C296.69,189.186 204.181,146.849 226.788,196.67 C133.423,224.019 70.121,258.34 115.161,354.726 C96.318,367.628 9.373,441.492 41.423,464.425 C22.288,514.019 33.005,553.296 74.301,536.982 C54.322,586.919 94.565,607.232 126.988,585.616 C151.32,640.332 194.555,614.663 212.769,564.68 C219.814,608.167 343.151,606.145 360.696,570.759 C383.66,599.128 422.861,582.239 429.594,554.547 C440.399,601.832 473.645,619.914 480.927,592.376 C497.138,631.551 536.32,626.144 534.967,599.128 C570.092,627.498 596.393,549.244 589.007,514.019 C620.242,534.377 701.132,478.779 678.664,458.807 C711.747,432.548 708.949,442.862 688.973,415.398" fill-opacity="0" stroke="#1A1919" stroke-width="4.265" stroke-linecap="round" stroke-linejoin="round"/>
    <g>
      <path d="M332.272,76.21 C342.364,96.403 344.675,125.857 322.907,139.868 C273.811,171.478 191.203,83.869 191.84,42.504 C192.358,9.026 233.093,-2.685 264.861,5.056 C295.408,12.489 317.287,46.245 332.272,76.21 z" fill="#D9D8CE"/>
      <path d="M332.272,76.21 C342.364,96.403 344.675,125.857 322.907,139.868 C273.811,171.478 191.203,83.869 191.84,42.504 C192.358,9.026 233.093,-2.685 264.861,5.056 C295.408,12.489 317.287,46.245 332.272,76.21 z" fill-opacity="0" stroke="#1A1919" stroke-width="4.265" stroke-linecap="round" stroke-linejoin="round"/>
    </g>
    <g>
      <path d="M317.287,8.8 C258.89,26.939 266.956,71.749 271.17,94.784 C274.456,112.744 287.061,142.966 304.183,151.103 C320.572,158.905 343.468,151.19 347.252,130.503 C351.89,105.097 323.168,96.05 309.783,77.306 C294.403,55.749 297.221,32.409 317.287,8.8 z" fill="#D9D8CE"/>
      <path d="M317.287,8.8 C258.89,26.939 266.956,71.749 271.17,94.784 C274.456,112.744 287.061,142.966 304.183,151.103 C320.572,158.905 343.468,151.19 347.252,130.503 C351.89,105.097 323.168,96.05 309.783,77.306 C294.403,55.749 297.221,32.409 317.287,8.8 z" fill-opacity="0" stroke="#1A1919" stroke-width="4.265" stroke-linecap="round" stroke-linejoin="round"/>
    </g>
    <path d="M329.145,96.814 C316.812,98.607 312.288,110.746 314.786,126.976 M310.06,78.343 C302.94,80.726 299.904,85.091 300.602,90.502" fill-opacity="0" stroke="#1A1919" stroke-width="4.265" stroke-linecap="round" stroke-linejoin="round"/>
    <g>
      <path d="M237.11,3.366 C228.189,7.016 224.559,16.878 226.297,27.01" fill="#D9D8CE"/>
      <path d="M237.11,3.366 C228.189,7.016 224.559,16.878 226.297,27.01" fill-opacity="0" stroke="#1A1919" stroke-width="4.265" stroke-linecap="round" stroke-linejoin="round"/>
    </g>
    <g>
      <path d="M262.772,4.72 C250.614,5.393 250.194,16.368 249.256,24.414" fill="#D9D8CE"/>
      <path d="M262.772,4.72 C250.614,5.393 250.194,16.368 249.256,24.414" fill-opacity="0" stroke="#1A1919" stroke-width="4.265" stroke-linecap="round" stroke-linejoin="round"/>
    </g>
    <g>
      <path d="M133.763,471.465 C106.913,486.425 125.349,550.237 144.568,552.521 C135.773,583.756 159.754,616.813 201.288,611.287 C189.129,643.709 262.97,677.268 276.957,632.228 C295.654,641.928 333.182,643.218 328.297,614.663 C360.46,628.538 367.48,586.238 359.366,566.03 C389.77,565.975 377.509,524.484 362.05,511.32" fill="#EAE6D0"/>
      <path d="M133.763,471.465 C106.913,486.425 125.349,550.237 144.568,552.521 C135.773,583.756 159.754,616.813 201.288,611.287 C189.129,643.709 262.97,677.268 276.957,632.228 C295.654,641.928 333.182,643.218 328.297,614.663 C360.46,628.538 367.48,586.238 359.366,566.03 C389.77,565.975 377.509,524.484 362.05,511.32" fill-opacity="0" stroke="#1A1919" stroke-width="4.265" stroke-linecap="round" stroke-linejoin="round"/>
    </g>
    <g>
      <path d="M512.004,475.519 C485.153,490.482 491.771,523.898 510.99,526.178 C502.196,557.413 523.157,592.494 564.69,586.971 C572.795,622.092 626.036,636.063 640.023,591.022 C658.719,600.726 680.35,568.242 675.461,539.689 C707.626,553.564 706.546,495.054 698.432,474.845 C728.836,474.79 713.892,411.006 698.432,397.843" fill="#EAE6D0"/>
      <path d="M512.004,475.519 C485.153,490.482 491.771,523.898 510.99,526.178 C502.196,557.413 523.157,592.494 564.69,586.971 C572.795,622.092 626.036,636.063 640.023,591.022 C658.719,600.726 680.35,568.242 675.461,539.689 C707.626,553.564 706.546,495.054 698.432,474.845 C728.836,474.79 713.892,411.006 698.432,397.843" fill-opacity="0" stroke="#1A1919" stroke-width="4.265" stroke-linecap="round" stroke-linejoin="round"/>
    </g>
    <g>
      <path d="M294.197,191.671 C298.551,171.558 302.461,183.922 292.471,129.003 C326.92,122.25 293.801,60.292 281.35,67.198 C286.416,36.801 253.994,22.617 236.769,34.775 C236.429,-5.752 182.397,-4.403 166.858,22.617 C150.501,-0.694 68.578,25.656 76.569,53.701 C65.115,69.312 58.723,87.687 63.512,104.014 C21.072,96.517 6.662,180.241 46.605,220.191 C-3.328,222.685 -0.977,290.319 36.472,305.3 C-0.977,320.277 -8.207,369.896 19.248,387.369 C1.715,414.952 -8.346,481.545 39.547,476.282" fill="#EAE6D0"/>
      <path d="M294.197,191.671 C298.551,171.558 302.461,183.922 292.471,129.003 C326.92,122.25 293.801,60.292 281.35,67.198 C286.416,36.801 253.994,22.617 236.769,34.775 C236.429,-5.752 182.397,-4.403 166.858,22.617 C150.501,-0.694 68.578,25.656 76.569,53.701 C65.115,69.312 58.723,87.687 63.512,104.014 C21.072,96.517 6.662,180.241 46.605,220.191 C-3.328,222.685 -0.977,290.319 36.472,305.3 C-0.977,320.277 -8.207,369.896 19.248,387.369 C1.715,414.952 -8.346,481.545 39.547,476.282" fill-opacity="0" stroke="#1A1919" stroke-width="4.265" stroke-linecap="round" stroke-linejoin="round"/>
    </g>
    <g>
      <path d="M396.555,281.553 C390.059,330.211 335.366,351.907 283.693,340.761 C257.856,335.19 213.078,326.038 170.214,309.352 C151.795,302.185 122.246,279.908 113.475,262.746 C92.349,221.379 123.457,164.323 146.594,145.214 C173.029,152.647 176.238,170.884 205.36,138.122 C216.545,152.101 263.429,141.162 257.35,114.818 C273.561,124.95 282.142,117.969 282.339,101.987 C290.248,119.322 294.498,131.703 319.163,161.71 C336.767,183.13 356.216,207.597 370.829,222.217 C395.787,247.188 399.871,256.666 396.555,281.553 z" fill="#FFFFFE"/>
      <path d="M396.555,281.553 C390.059,330.211 335.366,351.907 283.693,340.761 C257.856,335.19 213.078,326.038 170.214,309.352 C151.795,302.185 122.246,279.908 113.475,262.746 C92.349,221.379 123.457,164.323 146.594,145.214 C173.029,152.647 176.238,170.884 205.36,138.122 C216.545,152.101 263.429,141.162 257.35,114.818 C273.561,124.95 282.142,117.969 282.339,101.987 C290.248,119.322 294.498,131.703 319.163,161.71 C336.767,183.13 356.216,207.597 370.829,222.217 C395.787,247.188 399.871,256.666 396.555,281.553 z" fill-opacity="0" stroke="#1A1919" stroke-width="4.265" stroke-linecap="round" stroke-linejoin="round"/>
    </g>
    <path d="M193.178,176.284 C180.106,175.302 182.373,198.574 194.532,197.9 C200.927,197.544 204.108,177.105 193.178,176.284" fill="#1A1919"/>
    <path d="M280.337,146.227 C272.033,147.149 270.941,170.9 282.363,169.531 C290.809,168.518 289.456,145.214 280.337,146.227" fill="#1A1919"/>
    <path d="M375.894,321.511 C339.419,348.868 279.553,319.655 277.614,296.182" fill-opacity="0" stroke="#1A1919" stroke-width="4.265" stroke-linecap="round" stroke-linejoin="round"/>
    <g>
      <path d="M138.489,55.04 C108.528,38.19 73.129,43.309 43.292,71.223 C-4.032,115.491 -20.583,209.046 53.277,242.849 C78.421,254.355 113.697,213.831 122.278,200.941 C101.001,198.914 78.267,187.041 87.959,157.966 C92.741,143.631 109.343,140.777 124.304,137.108 C140.721,133.084 153.948,141.815 164.832,125.963 C175.95,109.776 163.819,69.224 138.489,55.04 z" fill="#D9D8CE"/>
      <path d="M138.489,55.04 C108.528,38.19 73.129,43.309 43.292,71.223 C-4.032,115.491 -20.583,209.046 53.277,242.849 C78.421,254.355 113.697,213.831 122.278,200.941 C101.001,198.914 78.267,187.041 87.959,157.966 C92.741,143.631 109.343,140.777 124.304,137.108 C140.721,133.084 153.948,141.815 164.832,125.963 C175.95,109.776 163.819,69.224 138.489,55.04 z" fill-opacity="0" stroke="#1A1919" stroke-width="4.265" stroke-linecap="round" stroke-linejoin="round"/>
    </g>
    <g>
      <path d="M79.724,159.398 C82.763,189.795 112.525,189.292 124.304,165.479 C138.346,137.069 137.174,90.169 95.721,65.603 C144.405,71.223 170.923,136.808 163.755,182.933 C158.753,215.125 146.365,232.156 128.175,242.849 C110.943,252.981 80.396,258.021 47.301,239.783" fill="#D9D8CE"/>
      <path d="M79.724,159.398 C82.763,189.795 112.525,189.292 124.304,165.479 C138.346,137.069 137.174,90.169 95.721,65.603 C144.405,71.223 170.923,136.808 163.755,182.933 C158.753,215.125 146.365,232.156 128.175,242.849 C110.943,252.981 80.396,258.021 47.301,239.783" fill-opacity="0" stroke="#1A1919" stroke-width="4.265" stroke-linecap="round" stroke-linejoin="round"/>
    </g>
    <path d="M43.248,72.264 C67.565,55.04 103.027,65.172 105.053,96.581 M19.604,102.66 C45.274,80.37 76.838,107.243 78.71,125.963 M163.819,147.241 C161.325,162.225 144.405,165.459 138.16,159.221 M163.819,179.663 C160.225,198.637 138.148,207.019 123.291,194.861 M378.261,274.231 C385.013,299.22 376.556,328.786 356.644,332.657" fill-opacity="0" stroke="#1A1919" stroke-width="4.265" stroke-linecap="round" stroke-linejoin="round"/>
    <g>
      <path d="M395.145,262.746 C392.347,274.872 388.749,280.663 371.129,283.033 C356.723,284.977 331.072,262.627 339.76,255.312 C352.959,244.2 362.889,258.653 374.881,255.653 C387.04,252.614 376.821,243.526 381.633,239.783 C390.419,238.429 397.172,253.966 395.145,262.746 z" fill="#7E7F7E"/>
      <path d="M395.145,262.746 C392.347,274.872 388.749,280.663 371.129,283.033 C356.723,284.977 331.072,262.627 339.76,255.312 C352.959,244.2 362.889,258.653 374.881,255.653 C387.04,252.614 376.821,243.526 381.633,239.783 C390.419,238.429 397.172,253.966 395.145,262.746 z" fill-opacity="0" stroke="#1A1919" stroke-width="4.265" stroke-linecap="round" stroke-linejoin="round"/>
    </g>
    <g>
      <path d="M568.114,698.631 C545.383,719.589 539.91,753.693 563.332,761.461 C578.234,775.742 623.813,751.107 625.839,719.699 C571.988,762.127 553.901,734.897 568.114,698.631 z" fill="#EAE6D0"/>
      <path d="M568.114,698.631 C545.383,719.589 539.91,753.693 563.332,761.461 C578.234,775.742 623.813,751.107 625.839,719.699 C571.988,762.127 553.901,734.897 568.114,698.631 z" fill-opacity="0" stroke="#1A1919" stroke-width="4.265" stroke-linecap="round" stroke-linejoin="round"/>
    </g>
    <path d="M583.062,722.022 C568.22,741.269 565.727,751.425 564.524,761.912" fill-opacity="0" stroke="#1A1919" stroke-width="4.265" stroke-linecap="round" stroke-linejoin="round"/>
    <g>
      <path d="M210.767,753.134 C188.033,774.09 185.29,810.431 208.712,818.201 C223.614,832.48 269.191,807.848 271.218,776.439 C217.368,818.865 196.549,789.4 210.767,753.134 z" fill="#EAE6D0"/>
      <path d="M210.767,753.134 C188.033,774.09 185.29,810.431 208.712,818.201 C223.614,832.48 269.191,807.848 271.218,776.439 C217.368,818.865 196.549,789.4 210.767,753.134 z" fill-opacity="0" stroke="#1A1919" stroke-width="4.265" stroke-linecap="round" stroke-linejoin="round"/>
    </g>
    <path d="M228.442,778.762 C213.601,798.008 211.106,808.164 209.904,818.652" fill-opacity="0" stroke="#1A1919" stroke-width="4.265" stroke-linecap="round" stroke-linejoin="round"/>
    <g>
      <path d="M446.914,665.246 C418.856,678.232 403.188,709.012 423.103,723.586 C432.915,741.746 486.334,720.713 495.286,700.495 C421.456,717.225 434.561,692.801 446.914,665.246 z" fill="#EAE6D0"/>
      <path d="M446.914,665.246 C418.856,678.232 403.188,709.012 423.103,723.586 C432.915,741.746 486.334,720.713 495.286,700.495 C421.456,717.225 434.561,692.801 446.914,665.246 z" fill-opacity="0" stroke="#1A1919" stroke-width="4.265" stroke-linecap="round" stroke-linejoin="round"/>
    </g>
    <path d="M451.405,687.268 C437.731,693.684 424.013,707.779 420.134,719.358" fill-opacity="0" stroke="#1A1919" stroke-width="4.265" stroke-linecap="round" stroke-linejoin="round"/>
    <g>
      <path d="M72.029,681.458 C43.973,694.445 28.303,725.226 48.219,739.797 C58.03,757.96 112.652,740.928 121.605,720.713 C47.775,737.441 59.677,709.012 72.029,681.458 z" fill="#EAE6D0"/>
      <path d="M72.029,681.458 C43.973,694.445 28.303,725.226 48.219,739.797 C58.03,757.96 112.652,740.928 121.605,720.713 C47.775,737.441 59.677,709.012 72.029,681.458 z" fill-opacity="0" stroke="#1A1919" stroke-width="4.265" stroke-linecap="round" stroke-linejoin="round"/>
    </g>
    <path d="M76.522,703.479 C62.847,709.896 49.129,723.99 45.25,735.568 M429.594,554.547 C447.349,560.195 462.095,563.017 467.422,541.036" fill-opacity="0" stroke="#1A1919" stroke-width="4.265" stroke-linecap="round" stroke-linejoin="round"/>
    <g>
      <path d="M1074.066,355.596 C1088.827,379.278 1141.562,366.095 1149.481,344.079 C1161.877,376.977 1158.402,400.193 1117.383,415.406" fill="#EAE6D0"/>
      <path d="M1074.066,355.596 C1088.827,379.278 1141.562,366.095 1149.481,344.079 C1161.877,376.977 1158.402,400.193 1117.383,415.406" fill-opacity="0" stroke="#1A1919" stroke-width="4.265" stroke-linecap="round" stroke-linejoin="round"/>
    </g>
    <g>
      <path d="M803.006,902.866 C808.998,889.917 804.066,782.359 802.943,765.516 C801.455,742.63 798.857,668.588 860.041,734.054 C869.418,767.082 854.664,837.381 852.772,874.568 C851.561,898.109 860.727,920.356 845.807,943.829 C831.831,965.813 808.982,977.858 794.227,963.738 C775.087,948.255 793.08,924.453 803.006,902.866 z" fill="#FFFFFE"/>
      <path d="M803.006,902.866 C808.998,889.917 804.066,782.359 802.943,765.516 C801.455,742.63 798.857,668.588 860.041,734.054 C869.418,767.082 854.664,837.381 852.772,874.568 C851.561,898.109 860.727,920.356 845.807,943.829 C831.831,965.813 808.982,977.858 794.227,963.738 C775.087,948.255 793.08,924.453 803.006,902.866 z" fill-opacity="0" stroke="#1A1919" stroke-width="4.265" stroke-linecap="round" stroke-linejoin="round"/>
    </g>
    <g>
      <path d="M1068.413,806.034 C1073.958,792.872 1070.641,752.863 1069.016,736.061 C1066.798,713.223 1056.773,571.977 1120.023,635.458 C1136.246,686.342 1117.58,758.24 1117.241,776.121 C1116.798,799.709 1122.861,823.354 1105.431,848.874 C1095.543,863.336 1067.357,881.79 1058.761,868.746 C1039.248,855.318 1059.18,827.905 1068.413,806.034 z" fill="#FFFFFE"/>
      <path d="M1068.413,806.034 C1073.958,792.872 1070.641,752.863 1069.016,736.061 C1066.798,713.223 1056.773,571.977 1120.023,635.458 C1136.246,686.342 1117.58,758.24 1117.241,776.121 C1116.798,799.709 1122.861,823.354 1105.431,848.874 C1095.543,863.336 1067.357,881.79 1058.761,868.746 C1039.248,855.318 1059.18,827.905 1068.413,806.034 z" fill-opacity="0" stroke="#1A1919" stroke-width="4.265" stroke-linecap="round" stroke-linejoin="round"/>
    </g>
    <g>
      <path d="M681.518,780.293 C679.221,796.81 670.039,872.826 662.227,887.012 C653.527,902.779 616.19,924.31 629.526,943.663 C632.654,963.072 689.354,948.808 701.987,926.115 C710.219,911.273 711.168,896.673 714.295,879.697 C720.787,844.615 751.42,794.277 747.193,758.121 C744.604,736.004 719.207,696.185 692.574,709.291 C666.279,722.239 685.214,753.918 681.518,780.293 z" fill="#FFFFFE"/>
      <path d="M681.518,780.293 C679.221,796.81 670.039,872.826 662.227,887.012 C653.527,902.779 616.19,924.31 629.526,943.663 C632.654,963.072 689.354,948.808 701.987,926.115 C710.219,911.273 711.168,896.673 714.295,879.697 C720.787,844.615 751.42,794.277 747.193,758.121 C744.604,736.004 719.207,696.185 692.574,709.291 C666.279,722.239 685.214,753.918 681.518,780.293 z" fill-opacity="0" stroke="#1A1919" stroke-width="4.265" stroke-linecap="round" stroke-linejoin="round"/>
    </g>
    <g>
      <path d="M977.537,682.218 C975.242,698.731 966.061,774.744 958.248,788.93 C949.547,804.697 912.21,826.227 925.539,845.589 C928.667,864.998 985.365,850.731 998.007,828.031 C1006.239,813.198 1007.182,798.595 1010.309,781.615 C1016.799,746.533 1047.433,696.197 1043.206,660.047 C1040.617,637.926 1015.224,598.107 988.588,611.207 C962.301,624.156 981.234,655.844 977.537,682.218 z" fill="#FFFFFE"/>
      <path d="M977.537,682.218 C975.242,698.731 966.061,774.744 958.248,788.93 C949.547,804.697 912.21,826.227 925.539,845.589 C928.667,864.998 985.365,850.731 998.007,828.031 C1006.239,813.198 1007.182,798.595 1010.309,781.615 C1016.799,746.533 1047.433,696.197 1043.206,660.047 C1040.617,637.926 1015.224,598.107 988.588,611.207 C962.301,624.156 981.234,655.844 977.537,682.218 z" fill-opacity="0" stroke="#1A1919" stroke-width="4.265" stroke-linecap="round" stroke-linejoin="round"/>
    </g>
    <path d="M1095.986,367.264 C1097,351.883 1060.176,317.711 1022.879,342.297 C1005.045,315.551 971.158,308.414 960.286,335.752 C933.717,313.766 903.393,329.82 897.146,347.347 C869.953,332.015 818.314,352.121 801.572,376.906 C706.856,397.208 514.22,538.792 626.594,647.398 C614.215,665.272 611.203,711.067 647.511,720.566 C638.852,743.049 665.535,783.743 696.707,755.185 C709.934,807.848 740.33,813.926 760.736,763.141 C781.958,785.764 811.689,773.818 831.518,743.003 C852.59,779.301 892.797,756.127 896.362,718.685 C918.654,740.976 944.576,745.116 963.234,714.633 C963.234,736.922 983.494,747.051 995.656,732.87 C1009.841,763.267 1032.416,741.728 1038.211,726.791 C1059.211,730.147 1084.612,727.71 1081.715,700.727 C1124.52,723.91 1141.109,703.162 1136.998,670.413 C1202.801,668.738 1182.303,635.057 1163.748,606.221 C1208.33,584.816 1207.3,533.674 1173.979,518.072 C1194.477,483.449 1187.619,468.101 1149.481,445.732 C1172.793,404.887 1148.65,389.357 1120.953,392.229" fill="#EAE6D0"/>
    <path d="M924.055,690.993 C930.451,675.87 955.255,679.519 965.458,692.12 C941.454,662.484 1031.53,657.371 1044.753,664.041 C1101.833,692.833 1082.547,756.406 1033.481,734.221 C1015.921,761.24 998.483,738.926 994.307,734.221 C987.567,746.297 965.984,732.736 962.705,717.027 C964.434,725.31 907.845,753.134 894.412,733.543 C873.855,703.563 902.699,661.602 924.055,690.993" fill="#D9D6C1"/>
    <path d="M1095.986,367.264 C1097,351.883 1060.176,317.711 1022.879,342.297 C1005.045,315.551 971.158,308.414 960.286,335.752 C933.717,313.766 903.393,329.82 897.146,347.347 C869.953,332.015 818.314,352.121 801.572,376.906 C706.856,397.208 514.22,538.792 626.594,647.398 C614.215,665.272 611.203,711.067 647.511,720.566 C638.852,743.049 665.535,783.743 696.707,755.185 C709.934,807.848 740.33,813.926 760.736,763.141 C781.958,785.764 811.689,773.818 831.518,743.003 C852.59,779.301 892.797,756.127 896.362,718.685 C918.654,740.976 944.576,745.116 963.234,714.633 C963.234,736.922 983.494,747.051 995.656,732.87 C1009.841,763.267 1032.416,741.728 1038.211,726.791 C1059.211,730.147 1084.612,727.71 1081.715,700.727 C1124.52,723.91 1141.109,703.162 1136.998,670.413 C1202.801,668.738 1182.303,635.057 1163.748,606.221 C1208.33,584.816 1207.3,533.674 1173.979,518.072 C1194.477,483.449 1187.619,468.101 1149.481,445.732 C1172.793,404.887 1148.65,389.357 1120.953,392.229" fill-opacity="0" stroke="#1A1919" stroke-width="4.265" stroke-linecap="round" stroke-linejoin="round"/>
    <g>
      <path d="M582.644,368.656 C602.004,369.283 609.136,354.756 607.815,333.998 C606.025,305.608 558.009,292.699 531.271,324.214 C537.191,346.188 558.856,367.865 582.644,368.656 z" fill="#FFFFFE"/>
      <path d="M582.644,368.656 C602.004,369.283 609.136,354.756 607.815,333.998 C606.025,305.608 558.009,292.699 531.271,324.214 C537.191,346.188 558.856,367.865 582.644,368.656 z" fill-opacity="0" stroke="#1A1919" stroke-width="4.265" stroke-linecap="round" stroke-linejoin="round"/>
    </g>
    <path d="M552.991,340.667 C546.456,328.549 560.958,325.734 569.139,326.838 C577.918,327.986 606.547,336.922 591.037,352.248 C582.516,360.689 557.59,349.184 552.991,340.667" fill="#FAE0E6"/>
    <path d="M553.363,328.99 C558.65,322.104 590.748,323.159 592.474,333.998" fill-opacity="0" stroke="#1A1919" stroke-width="4.265" stroke-linecap="round" stroke-linejoin="round"/>
    <g>
      <path d="M879.075,409.593 C891.854,394.373 890.7,354.95 864.075,348.096 C874.516,315.513 848.77,306.376 824.908,300.4 C833.663,278.925 803.737,248.5 766.58,265.6 C762.052,229.256 718.053,225.989 685.584,249.101 C672.682,227.682 633.5,251.644 622.862,276.836 C595.787,272.109 556.94,305.3 585.117,355.303 C587.725,400.034 566.436,419.396 587.867,468.718" fill="#EAE6D0"/>
      <path d="M879.075,409.593 C891.854,394.373 890.7,354.95 864.075,348.096 C874.516,315.513 848.77,306.376 824.908,300.4 C833.663,278.925 803.737,248.5 766.58,265.6 C762.052,229.256 718.053,225.989 685.584,249.101 C672.682,227.682 633.5,251.644 622.862,276.836 C595.787,272.109 556.94,305.3 585.117,355.303 C587.725,400.034 566.436,419.396 587.867,468.718" fill-opacity="0" stroke="#1A1919" stroke-width="4.265" stroke-linecap="round" stroke-linejoin="round"/>
    </g>
    <g>
      <path d="M506.376,460.66 C499.283,478.795 507.096,519.758 533.637,536.309 C572.258,560.386 637.324,546.251 678.525,530.231 C715,516.045 757.143,491.443 770.727,471.465 C788.477,445.321 784.547,425.812 777.818,399.528 C773.777,383.641 757.721,360.706 742.356,353.934 C728.434,373.39 699.801,363.053 691.697,341.779 C673.459,360.014 645.09,367.106 646.102,341.774 C615.43,350.028 608.614,343.802 609.279,326.558 C578.851,323.411 579.318,378.607 563.519,400.105 C551.867,415.938 516.191,435.541 506.376,460.66 z" fill="#FFFFFE"/>
      <path d="M506.376,460.66 C499.283,478.795 507.096,519.758 533.637,536.309 C572.258,560.386 637.324,546.251 678.525,530.231 C715,516.045 757.143,491.443 770.727,471.465 C788.477,445.321 784.547,425.812 777.818,399.528 C773.777,383.641 757.721,360.706 742.356,353.934 C728.434,373.39 699.801,363.053 691.697,341.779 C673.459,360.014 645.09,367.106 646.102,341.774 C615.43,350.028 608.614,343.802 609.279,326.558 C578.851,323.411 579.318,378.607 563.519,400.105 C551.867,415.938 516.191,435.541 506.376,460.66 z" fill-opacity="0" stroke="#1A1919" stroke-width="4.265" stroke-linecap="round" stroke-linejoin="round"/>
    </g>
    <path d="M685.617,386.356 C671.141,386.451 674.473,405.606 680.551,408.647 C697.118,416.93 699.94,386.261 685.617,386.356" fill="#1A1919"/>
    <path d="M598.481,362.04 C588.199,363.068 585.527,383.159 596.455,385.343 C606.588,387.369 608.614,361.025 598.481,362.04" fill="#1A1919"/>
    <path d="M649.633,500.214 C644.496,516.597 623.813,543.4 598.481,547.455" fill-opacity="0" stroke="#1A1919" stroke-width="4.265" stroke-linecap="round" stroke-linejoin="round"/>
    <g>
      <path d="M804.478,444.686 C786.699,433.833 788.457,417.607 801.309,401.197 C818.885,378.737 869.322,396.219 875.648,438.01 C857.952,452.737 826.289,457.97 804.478,444.686 z" fill="#FFFFFE"/>
      <path d="M804.478,444.686 C786.699,433.833 788.457,417.607 801.309,401.197 C818.885,378.737 869.322,396.219 875.648,438.01 C857.952,452.737 826.289,457.97 804.478,444.686 z" fill-opacity="0" stroke="#1A1919" stroke-width="4.265" stroke-linecap="round" stroke-linejoin="round"/>
    </g>
    <path d="M846.865,438.901 C859.563,432.711 845.568,416.593 837.598,412.7 C829.057,408.504 800.812,404.38 806.119,426.141 C809.068,438.123 837.922,443.261 846.865,438.901" fill="#FAE0E6"/>
    <path d="M853.104,429.013 C852.193,420.187 822.756,402.227 815.108,410.206 M523.505,478.558 C515.399,503.889 525.54,527.919 542.756,541.375" fill-opacity="0" stroke="#1A1919" stroke-width="4.265" stroke-linecap="round" stroke-linejoin="round"/>
    <g>
      <path d="M555.713,483.437 C548.622,491.58 533.985,490.648 522.543,486.052 C505.513,479.226 498.982,457.929 513.104,451.889 C519.453,449.175 521.653,456.504 522.69,458.815 C528.306,471.303 535.212,467.227 547.165,465.551 C556.696,464.223 564.31,473.559 555.713,483.437 z" fill="#7E7F7E"/>
      <path d="M555.713,483.437 C548.622,491.58 533.985,490.648 522.543,486.052 C505.513,479.226 498.982,457.929 513.104,451.889 C519.453,449.175 521.653,456.504 522.69,458.815 C528.306,471.303 535.212,467.227 547.165,465.551 C556.696,464.223 564.31,473.559 555.713,483.437 z" fill-opacity="0" stroke="#1A1919" stroke-width="4.265" stroke-linecap="round" stroke-linejoin="round"/>
    </g>
    <g>
      <path d="M649.142,901.061 C620.773,911.193 602.661,933.528 620.293,950.795 C635.971,965.907 686.629,949.696 699.801,931.457 C616.719,950.71 632.986,926.566 649.142,901.061 z" fill="#EAE6D0"/>
      <path d="M649.142,901.061 C620.773,911.193 602.661,933.528 620.293,950.795 C635.971,965.907 686.629,949.696 699.801,931.457 C616.719,950.71 632.986,926.566 649.142,901.061 z" fill-opacity="0" stroke="#1A1919" stroke-width="4.265" stroke-linecap="round" stroke-linejoin="round"/>
    </g>
    <path d="M657.493,919.458 C643.047,923.859 623.017,937.685 617.527,948.596" fill-opacity="0" stroke="#1A1919" stroke-width="4.265" stroke-linecap="round" stroke-linejoin="round"/>
    <g>
      <path d="M947.021,802.78 C918.654,812.913 900.543,835.248 918.174,852.515 C933.852,867.625 980.459,852.428 993.63,834.189 C915.613,843.31 923.719,823.046 947.021,802.78 z" fill="#EAE6D0"/>
      <path d="M947.021,802.78 C918.654,812.913 900.543,835.248 918.174,852.515 C933.852,867.625 980.459,852.428 993.63,834.189 C915.613,843.31 923.719,823.046 947.021,802.78 z" fill-opacity="0" stroke="#1A1919" stroke-width="4.265" stroke-linecap="round" stroke-linejoin="round"/>
    </g>
    <path d="M955.373,821.178 C940.928,825.578 920.896,839.402 915.408,850.314" fill-opacity="0" stroke="#1A1919" stroke-width="4.265" stroke-linecap="round" stroke-linejoin="round"/>
    <g>
      <path d="M794.029,920.314 C774.779,941.59 761.723,971.201 784.416,980.891 C798.078,996.367 837.598,971.986 849.756,938.551 C781.618,971.543 788.227,949.941 794.029,920.314 z" fill="#EAE6D0"/>
      <path d="M794.029,920.314 C774.779,941.59 761.723,971.201 784.416,980.891 C798.078,996.367 837.598,971.986 849.756,938.551 C781.618,971.543 788.227,949.941 794.029,920.314 z" fill-opacity="0" stroke="#1A1919" stroke-width="4.265" stroke-linecap="round" stroke-linejoin="round"/>
    </g>
    <path d="M805.176,936.524 C788.777,954.469 787.641,971.091 785.567,981.445" fill-opacity="0" stroke="#1A1919" stroke-width="4.265" stroke-linecap="round" stroke-linejoin="round"/>
    <g>
      <path d="M1060.392,821.256 C1042.604,843.768 1031.554,874.187 1054.842,882.342 C1069.509,896.871 1103.282,870.385 1113.188,836.216 C1059.488,870.666 1051.382,855.469 1060.392,821.256 z" fill="#EAE6D0"/>
      <path d="M1060.392,821.256 C1042.604,843.768 1031.554,874.187 1054.842,882.342 C1069.509,896.871 1103.282,870.385 1113.188,836.216 C1059.488,870.666 1051.382,855.469 1060.392,821.256 z" fill-opacity="0" stroke="#1A1919" stroke-width="4.265" stroke-linecap="round" stroke-linejoin="round"/>
    </g>
    <path d="M1072.593,836.684 C1057.43,855.685 1057.406,872.348 1056.029,882.816" fill-opacity="0" stroke="#1A1919" stroke-width="4.265" stroke-linecap="round" stroke-linejoin="round"/>
    <g>
      <path d="M705.882,649.787 C678.664,655.39 700.276,718.758 731.959,714.934 C728.377,724.413 721.035,747.887 727.008,759.207 C734.196,772.841 754.582,774.701 764.084,767.168 C768.701,817.98 815.955,797.272 817.334,784.207 C829.491,832.841 888.316,797.104 884.881,776.102 C905.225,776.609 926.759,752.459 914.601,722.063 C942.076,730.574 932.76,661.381 911.896,662.624" fill="#EAE6D0"/>
      <path d="M705.882,649.787 C678.664,655.39 700.276,718.758 731.959,714.934 C728.377,724.413 721.035,747.887 727.008,759.207 C734.196,772.841 754.582,774.701 764.084,767.168 C768.701,817.98 815.955,797.272 817.334,784.207 C829.491,832.841 888.316,797.104 884.881,776.102 C905.225,776.609 926.759,752.459 914.601,722.063 C942.076,730.574 932.76,661.381 911.896,662.624" fill-opacity="0" stroke="#1A1919" stroke-width="4.265" stroke-linecap="round" stroke-linejoin="round"/>
    </g>
    <g>
      <path d="M989.577,621.418 C962.359,627.019 983.973,690.387 1015.656,686.563 C1012.073,696.043 1004.732,719.516 1010.704,730.836 C1017.892,744.471 1038.277,746.332 1047.78,738.799 C1052.902,753.804 1054.79,770.486 1072.659,771.371 C1086.318,772.051 1117.891,758.094 1119.268,745.029 C1145.61,791.637 1179.441,733.611 1176.007,712.606 C1196.35,713.113 1210.455,676.131 1184.112,649.787 C1214.509,631.551 1186.735,587.754 1165.875,588.996" fill="#EAE6D0"/>
      <path d="M989.577,621.418 C962.359,627.019 983.973,690.387 1015.656,686.563 C1012.073,696.043 1004.732,719.516 1010.704,730.836 C1017.892,744.471 1038.277,746.332 1047.78,738.799 C1052.902,753.804 1054.79,770.486 1072.659,771.371 C1086.318,772.051 1117.891,758.094 1119.268,745.029 C1145.61,791.637 1179.441,733.611 1176.007,712.606 C1196.35,713.113 1210.455,676.131 1184.112,649.787 C1214.509,631.551 1186.735,587.754 1165.875,588.996" fill-opacity="0" stroke="#1A1919" stroke-width="4.265" stroke-linecap="round" stroke-linejoin="round"/>
    </g>
  </g>
</svg>
