<?xml version="1.0" encoding="iso-8859-1"?>
<!-- Uploaded to: SVG Repo, www.svgrepo.com, Generator: SVG Repo Mixer Tools -->
<svg height="800px" width="800px" version="1.1" id="Layer_1" xmlns="http://www.w3.org/2000/svg" xmlns:xlink="http://www.w3.org/1999/xlink" 
	 viewBox="0 0 512 512" xml:space="preserve">
<g>
	<path style="fill:#5C3C1E;" d="M144.029,427.385c0,0,8.311,61.543,9.748,80.312c0.186,2.43,2.296,4.303,4.839,4.303h10.491
		c2.279,0,4.252-1.517,4.74-3.65c2.299-10.076,8.262-56.907,6.157-74.075L144.029,427.385z"/>
	<path style="fill:#5C3C1E;" d="M367.974,427.385c0,0-8.311,61.543-9.748,80.312c-0.186,2.43-2.296,4.303-4.839,4.303h-10.491
		c-2.279,0-4.252-1.517-4.74-3.65c-2.299-10.076-8.262-56.907-6.157-74.075L367.974,427.385z"/>
</g>
<path style="fill:#FFF3DC;" d="M256.131,450.161c47.456,36.713,91.399-9.949,91.399-9.949c31.286,15.198,58.938-3.428,53.375-30.375
	c66.851-4.915,54.626-70.042,54.626-70.042c47.931-13.193,14.726-67.627,14.726-67.627c25.108-15.047,30.154-40.669,31.361-58.702
	c1.272-19.025-5.434-53.194-43.479-68.737c3.882-44.549-44.772-47.072-44.772-47.072c-10.102-68.597-71.692-55.439-71.692-55.439
	c-15.167-35.883-37.073-28.733-55.077-27.127C280.603,6.09,269.143,0,256.002,0C242.86,0,231.4,6.09,225.406,15.091
	c-18.004-1.606-39.91-8.756-55.079,27.127c0,0-61.591-13.158-71.692,55.439c0,0-48.654,2.522-44.773,47.072
	c-38.045,15.543-44.751,49.712-43.479,68.737c1.207,18.033,6.253,43.655,31.361,58.702c0,0-33.205,54.434,14.726,67.627
	c0,0-12.225,65.126,54.627,70.042c-5.563,26.947,22.089,45.573,53.375,30.375c0,0,43.943,46.662,91.399,9.949"/>
<g>
	<ellipse style="fill:#E6CFA8;" cx="244.576" cy="247.916" rx="105.871" ry="123.333"/>
	<path style="fill:#E6CFA8;" d="M261.391,427.385c-44.559,28.025-106.77-8.658-101.129-36.989
		c-67.783-5.167-47.62-74.027-47.62-74.027c-48.6-13.87-31.077-76.911-31.077-76.911c-25.459-15.82-22.197-36.556-23.422-55.515
		c-1.29-20.001,5.509-55.925,44.085-72.266c0.869-16.606,2.845-30.628,5.517-42.468c-4.162,7.417-7.387,16.74-9.111,28.447
		c0,0-48.654,2.522-44.773,47.072C15.815,160.271,9.11,194.44,10.382,213.465c1.207,18.033,6.253,43.655,31.361,58.702
		c0,0-33.205,54.434,14.726,67.627c0,0-12.225,65.126,54.626,70.042c-5.563,26.947,22.089,45.573,53.375,30.375
		c0,0,43.943,46.662,91.399,9.949h0.259c25.633,19.83,50.237,15.333,67.449,7.005C290.353,451.406,261.391,427.385,261.391,427.385z
		"/>
</g>
<g>
	<ellipse style="fill:#5C3C1E;" cx="162.602" cy="166.88" rx="42.723" ry="42.76"/>
	<ellipse style="fill:#5C3C1E;" cx="349.908" cy="166.88" rx="42.723" ry="42.76"/>
</g>
<ellipse style="fill:#7D522A;" cx="256.002" cy="235.595" rx="98.423" ry="117.803"/>
<path style="fill:#6B4623;" d="M180.447,224.202c1.21-28.694,12.736-70.655,27.004-91.096
	c-29.783,20.255-49.875,58.564-49.875,102.494c0,65.063,44.068,117.806,98.427,117.806c30.365,0,57.514-16.462,75.569-42.331
	C228.329,371.335,177.854,285.642,180.447,224.202z"/>
<g>
	<circle style="fill:#4A3018;" cx="228.332" cy="220.764" r="7.24"/>
	<circle style="fill:#4A3018;" cx="283.671" cy="220.764" r="7.24"/>
	<path style="fill:#4A3018;" d="M299.093,291.202c-3.906-2.165-8.826-0.753-10.99,3.151c-0.086,0.155-7.68,13.493-24.016,17.022
		v-21.353c7.243-3.133,12.316-10.344,12.316-18.744c0-11.276-9.133-20.417-20.4-20.417c-11.267,0-20.4,9.141-20.4,20.417
		c0,8.4,5.073,15.61,12.316,18.744v21.354c-16.013-3.456-23.617-16.328-24.035-17.058c-2.175-3.878-7.076-5.276-10.971-3.116
		c-3.905,2.164-5.316,7.085-3.151,10.989c0.593,1.07,14.887,26.207,46.241,26.207c31.353,0,45.648-25.137,46.241-26.207
		C304.407,298.287,302.997,293.366,299.093,291.202z"/>
</g>
</svg>