<?xml version="1.0" encoding="UTF-8" standalone="no"?>
<svg xmlns:rdf="http://www.w3.org/1999/02/22-rdf-syntax-ns#" xmlns="http://www.w3.org/2000/svg" height="388.78mm" width="900mm" version="1.1" xmlns:cc="http://creativecommons.org/ns#" xmlns:dc="http://purl.org/dc/elements/1.1/" viewBox="0 0 900 388.77695">
<g transform="translate(-60.523 272.1)">
<path d="m1582.2 0c-80.9 0-138.6 57.743-138.6 138.58v276.54h-1443.6v485.68c0 46.2 34.647 80.84 80.842 80.84h230.98c69.1-449.15 716.18-449.15 785.28 0h854.6c69.1-449.15 716.2-449.15 785.3 0h331.6c46.2 0 120.4-46.19 120.4-92.39v-150.13c0-40.84-24.5-100.74-43.3-150.14-46.2-115.44-346.9-104.7-485-173.23l-277.2-392.65c-23.1-23.099-46.2-23.1-69.3-23.1h-732zm341.8 115.5h344c11.5 0 23.1 0 34.6 11.54l213.7 306.04c23.1 23.1-5.8 63.52-28.9 63.52h-563.4c-46.2 0-80.9-34.64-80.9-80.84v-219.42c0-46.2 34.7-80.84 80.9-80.84zm-1219.5 585.72c-185.67 0-338.17 152.5-338.17 338.18 0 185.7 152.5 338.2 338.17 338.2 185.68 0 338.13-152.5 338.13-338.2 0-185.68-152.45-338.18-338.13-338.18zm1639.9 0c-185.7 0-338.2 152.5-338.2 338.18 0 185.7 152.5 338.2 338.2 338.2s338.2-152.5 338.2-338.2c0-185.68-152.5-338.18-338.2-338.18zm-1639.9 184.45c85.99 0 153.72 67.73 153.72 153.73s-67.73 153.7-153.72 153.7c-85.98 0-153.71-67.7-153.71-153.7s67.73-153.73 153.71-153.73zm1639.9 0c86 0 153.7 67.73 153.7 153.73s-67.7 153.7-153.7 153.7-153.7-67.7-153.7-153.7 67.7-153.73 153.7-153.73z" transform="matrix(.28222 0 0 .28222 60.523 -272.1)"/>
</g>
</svg>
